<?xml version="1.0" encoding="UTF-8"?>
<!DOCTYPE svg PUBLIC "-//W3C//DTD SVG 1.1//EN" "http://www.w3.org/Graphics/SVG/1.1/DTD/svg11.dtd">
<svg xmlns="http://www.w3.org/2000/svg" version="1.1" width="2801px" height="3751px" style="shape-rendering:geometricPrecision; text-rendering:geometricPrecision; image-rendering:optimizeQuality; fill-rule:evenodd; clip-rule:evenodd" xmlns:xlink="http://www.w3.org/1999/xlink">
<g><path style="opacity:0.994" fill="#fc8700" d="M 335.5,-0.5 C 341.167,-0.5 346.833,-0.5 352.5,-0.5C 497.666,0.33314 642.999,0.83314 788.5,1C 826.5,84 864.5,167 902.5,250C 1308.33,250.327 1714.17,249.827 2120,248.5C 2142.83,248.667 2165.67,248.833 2188.5,249C 2196.7,249.872 2199.53,254.372 2197,262.5C 2135.54,462.561 2073.87,662.561 2012,862.5C 2008.97,869.868 2003.47,873.701 1995.5,874C 1706.93,874.167 1418.43,874.667 1130,875.5C 1112.83,932.172 1095.67,988.839 1078.5,1045.5C 1335.22,1046 1591.89,1046.84 1848.5,1048C 1853.7,1052.89 1857.53,1058.72 1860,1065.5C 1876,1100.17 1892,1134.83 1908,1169.5C 1911.07,1175.7 1909.57,1180.2 1903.5,1183C 1749.86,1184.16 1596.2,1184.66 1442.5,1184.5C 1290.83,1184.33 1139.17,1184.17 987.5,1184C 984.452,1183.39 981.952,1181.89 980,1179.5C 959.588,1138.01 940.255,1096.01 922,1053.5C 920.57,1042.81 921.903,1032.47 926,1022.5C 949.333,947.833 972.667,873.167 996,798.5C 996.667,795.167 996.667,791.833 996,788.5C 894.107,571.046 791.94,353.713 689.5,136.5C 596.167,135.833 502.833,135.167 409.5,134.5C 384.555,89.6062 359.888,44.6062 335.5,-0.5 Z M 966.5,374.5 C 1312.33,373.5 1658.33,373.167 2004.5,373.5C 1967.5,494.167 1930.5,614.833 1893.5,735.5C 1640.5,735.667 1387.5,735.5 1134.5,735C 1078.6,614.698 1022.6,494.531 966.5,374.5 Z"/></g>
<g><path style="opacity:0.994" fill="#fc8700" d="M 1076.5,1214.5 C 1125.06,1211.7 1162.23,1230.7 1188,1271.5C 1205,1304.6 1207,1338.6 1194,1373.5C 1169.73,1422.39 1130.23,1445.22 1075.5,1442C 1025.39,1434.22 992.886,1406.06 978,1357.5C 968.338,1312.83 979.838,1274.66 1012.5,1243C 1031.08,1227.21 1052.41,1217.71 1076.5,1214.5 Z"/></g>
<g><path style="opacity:0.994" fill="#fc8700" d="M 1760.5,1214.5 C 1817.3,1212.13 1857.13,1236.8 1880,1288.5C 1895.08,1335.43 1885.58,1376.6 1851.5,1412C 1812.22,1445.09 1768.89,1451.42 1721.5,1431C 1677.97,1406.79 1657.14,1369.63 1659,1319.5C 1667.64,1260.03 1701.47,1225.03 1760.5,1214.5 Z"/></g>
<g><path style="opacity:0.999" fill="#fefefe" d="M 2800.5,2685.5 C 2800.5,2689.5 2800.5,2693.5 2800.5,2697.5C 2798.27,2773.77 2782.1,2847.1 2752,2917.5C 2720.58,2989.06 2680.58,3055.06 2632,3115.5C 2553.14,3210.71 2463.31,3293.54 2362.5,3364C 2204.6,3472.94 2033.26,3555.27 1848.5,3611C 1671.04,3663.09 1490.38,3699.42 1306.5,3720C 1147.19,3738.19 987.519,3748.35 827.5,3750.5C 784.5,3750.5 741.5,3750.5 698.5,3750.5C 504.375,3747.59 310.708,3735.09 117.5,3713C 107.383,3712.12 97.3834,3710.62 87.5,3708.5C 308.528,3391.97 529.361,3075.3 750,2758.5C 751.734,2757.75 753.567,2757.25 755.5,2757C 883.744,2753.32 1011.74,2745.65 1139.5,2734C 1250.76,2723.62 1360.43,2704.29 1468.5,2676C 1567.06,2649.88 1660.06,2610.88 1747.5,2559C 1777.62,2540.88 1804.12,2518.38 1827,2491.5C 1842.6,2472.11 1851.1,2449.95 1852.5,2425C 1851.76,2406.79 1846.6,2389.95 1837,2374.5C 1823.96,2354.46 1807.79,2337.29 1788.5,2323C 1739.85,2288.17 1686.85,2261.51 1629.5,2243C 1517.32,2208.54 1403.65,2179.87 1288.5,2157C 1235.24,2146.28 1181.91,2135.95 1128.5,2126C 1015.07,2105.85 901.739,2085.18 788.5,2064C 634.991,2035.77 483.657,1998.77 334.5,1953C 260.127,1930.48 188.794,1900.81 120.5,1864C 94.744,1849.46 70.744,1832.46 48.5,1813C 30.8172,1797.33 16.9839,1778.83 7,1757.5C 3.70005,1749.28 1.20005,1740.94 -0.5,1732.5C -0.5,1723.83 -0.5,1715.17 -0.5,1706.5C 3.82457,1686.51 11.9912,1668.18 24,1651.5C 43.2624,1628.24 65.0958,1607.74 89.5,1590C 135.588,1558.45 184.588,1531.78 236.5,1510C 355.04,1461.86 477.04,1424.86 602.5,1399C 689.694,1380.13 777.694,1366.47 866.5,1358C 883.809,1356.25 901.143,1355.25 918.5,1355C 857.833,1380.33 797.167,1405.67 736.5,1431C 668.065,1460.38 601.065,1492.72 535.5,1528C 498.313,1548.54 463.313,1572.2 430.5,1599C 418.514,1609.64 408.014,1621.48 399,1634.5C 382.189,1660.14 384.356,1683.97 405.5,1706C 425.985,1722.75 448.985,1735.08 474.5,1743C 522.862,1757.01 571.862,1768.34 621.5,1777C 726.285,1796.06 831.618,1811.4 937.5,1823C 1060.45,1836.44 1183.45,1849.44 1306.5,1862C 1452.96,1876.73 1598.62,1897.07 1743.5,1923C 1908.45,1952.32 2068.78,1997.65 2224.5,2059C 2329.04,2100.07 2427.04,2152.4 2518.5,2216C 2576.24,2256.72 2628.07,2304.22 2674,2358.5C 2729.14,2424.44 2767.14,2499.44 2788,2583.5C 2795.36,2617.26 2799.53,2651.26 2800.5,2685.5 Z"/></g>
</svg>
